# xmcd
#
# Track frame offsets:
#	150
#	15070
#	31900
#	44365
#	65930
#	80442
#
# Disc length: 1290 seconds
#
# Revision: 1
# Processed by: cddbd v1.4PL0 Copyright (c) Steve Scherf et al.
# Submitted via: audiograbber 1.81.02
#
DISCID=40050806
DTITLE=Troy Cassar - Daley - Bonus Disc
DYEAR=1999
DGENRE=Country
TTITLE0=Original Australian Working Man
TTITLE1=Almost Home
TTITLE2=You Can't Take The Country Out Of The Boy
TTITLE3=Back Home Again
TTITLE4=The Biggest Disappointment
TTITLE5=You'll Never Know 'Til You Try
EXTD=
EXTT0=
EXTT1=
EXTT2=
EXTT3=
EXTT4=
EXTT5=
PLAYORDER=
